<svg width="25" height="28" viewBox="0 0 25 28" fill="none" xmlns="http://www.w3.org/2000/svg">
<path d="M16.8711 18.8611C17.2762 18.8611 17.6205 18.7193 17.9041 18.4357C18.1876 18.1521 18.3294 17.8078 18.3294 17.4027C18.3294 16.9976 18.1876 16.6533 17.9041 16.3697C17.6205 16.0862 17.2762 15.9444 16.8711 15.9444C16.466 15.9444 16.1216 16.0862 15.8381 16.3697C15.5545 16.6533 15.4127 16.9976 15.4127 17.4027C15.4127 17.8078 15.5545 18.1521 15.8381 18.4357C16.1216 18.7193 16.466 18.8611 16.8711 18.8611ZM16.8711 21.7777C17.3734 21.7777 17.8352 21.6602 18.2565 21.4253C18.6778 21.1903 19.0181 20.8784 19.2773 20.4895C18.9208 20.2789 18.54 20.1168 18.135 20.0034C17.7299 19.89 17.3086 19.8333 16.8711 19.8333C16.4336 19.8333 16.0123 19.89 15.6072 20.0034C15.2021 20.1168 14.8213 20.2789 14.4648 20.4895C14.7241 20.8784 15.0644 21.1903 15.4857 21.4253C15.9069 21.6602 16.3688 21.7777 16.8711 21.7777ZM12.01 23.7222C9.75764 23.155 7.89827 21.8628 6.43183 19.8454C4.9654 17.8281 4.23218 15.5879 4.23218 13.1249V7.19439L12.01 4.27772L19.7877 7.19439V12.7118C19.4799 12.5821 19.1639 12.4646 18.8398 12.3593C18.5157 12.254 18.1836 12.177 17.8433 12.1284V8.5555L12.01 6.368L6.17662 8.5555V13.1249C6.17662 13.8865 6.2779 14.6481 6.48044 15.4097C6.68299 16.1712 6.96655 16.8964 7.33114 17.585C7.69572 18.2737 8.13727 18.9097 8.65579 19.493C9.17431 20.0763 9.74954 20.5624 10.3815 20.9513C10.5597 21.4699 10.7947 21.9641 11.0863 22.434C11.378 22.9039 11.7102 23.3252 12.0829 23.6979C12.0667 23.6979 12.0545 23.7019 12.0464 23.71C12.0383 23.7181 12.0262 23.7222 12.01 23.7222ZM16.8711 23.7222C15.5262 23.7222 14.3797 23.2482 13.4318 22.3003C12.4839 21.3524 12.01 20.206 12.01 18.8611C12.01 17.5161 12.4839 16.3697 13.4318 15.4218C14.3797 14.4739 15.5262 13.9999 16.8711 13.9999C18.216 13.9999 19.3624 14.4739 20.3103 15.4218C21.2582 16.3697 21.7322 17.5161 21.7322 18.8611C21.7322 20.206 21.2582 21.3524 20.3103 22.3003C19.3624 23.2482 18.216 23.7222 16.8711 23.7222Z" fill="#475569"/>
</svg>
