<svg width="25" height="28" viewBox="0 0 25 28" fill="none" xmlns="http://www.w3.org/2000/svg">
<path d="M17.8432 15.9445V13.0278H14.9265V11.0834H17.8432V8.16672H19.7877V11.0834H22.7043V13.0278H19.7877V15.9445H17.8432ZM9.09321 14.0001C8.02376 14.0001 7.10825 13.6193 6.34668 12.8577C5.58511 12.0961 5.20432 11.1806 5.20432 10.1112C5.20432 9.04172 5.58511 8.12621 6.34668 7.36464C7.10825 6.60306 8.02376 6.22228 9.09321 6.22228C10.1627 6.22228 11.0782 6.60306 11.8397 7.36464C12.6013 8.12621 12.9821 9.04172 12.9821 10.1112C12.9821 11.1806 12.6013 12.0961 11.8397 12.8577C11.0782 13.6193 10.1627 14.0001 9.09321 14.0001ZM1.31543 21.7778V19.0556C1.31543 18.5047 1.45721 17.9983 1.74078 17.5365C2.02434 17.0747 2.40108 16.7223 2.87099 16.4792C3.87561 15.9769 4.89645 15.6002 5.93349 15.349C6.97052 15.0979 8.02376 14.9723 9.09321 14.9723C10.1627 14.9723 11.2159 15.0979 12.2529 15.349C13.29 15.6002 14.3108 15.9769 15.3154 16.4792C15.7853 16.7223 16.1621 17.0747 16.4456 17.5365C16.7292 17.9983 16.871 18.5047 16.871 19.0556V21.7778H1.31543ZM3.25987 19.8334H14.9265V19.0556C14.9265 18.8774 14.882 18.7153 14.7929 18.5695C14.7037 18.4237 14.5863 18.3102 14.4404 18.2292C13.5654 17.7917 12.6823 17.4636 11.7911 17.2448C10.8999 17.0261 10.0006 16.9167 9.09321 16.9167C8.1858 16.9167 7.28649 17.0261 6.39529 17.2448C5.50409 17.4636 4.62099 17.7917 3.74599 18.2292C3.60015 18.3102 3.48268 18.4237 3.39355 18.5695C3.30443 18.7153 3.25987 18.8774 3.25987 19.0556V19.8334ZM9.09321 12.0556C9.62793 12.0556 10.0857 11.8652 10.4665 11.4844C10.8473 11.1036 11.0377 10.6459 11.0377 10.1112C11.0377 9.57644 10.8473 9.11869 10.4665 8.7379C10.0857 8.35711 9.62793 8.16672 9.09321 8.16672C8.55849 8.16672 8.10073 8.35711 7.71994 8.7379C7.33916 9.11869 7.14876 9.57644 7.14876 10.1112C7.14876 10.6459 7.33916 11.1036 7.71994 11.4844C8.10073 11.8652 8.55849 12.0556 9.09321 12.0556Z" fill="#EF4444"/>
</svg>
