<svg width="25" height="28" viewBox="0 0 25 28" fill="none" xmlns="http://www.w3.org/2000/svg">
<path d="M4.23218 23.7222V17.8888H7.14884V23.7222H4.23218ZM9.09329 23.7222V12.1527C8.2831 12.4282 7.75648 12.9346 7.51343 13.6718C7.27037 14.4091 7.14884 15.1666 7.14884 15.9444H5.2044C5.2044 13.8703 5.81204 12.2175 7.02732 10.9861C8.24259 9.75457 9.90347 9.13883 12.01 9.13883C13.6303 9.13883 14.8456 8.73779 15.6558 7.93571C16.466 7.13363 16.8711 5.9143 16.8711 4.27772H18.8155C18.8155 5.70365 18.5117 6.97969 17.9041 8.10585C17.2964 9.23201 16.3039 10.03 14.9266 10.4999V23.7222H12.9822V17.8888H11.0377V23.7222H9.09329ZM12.01 8.16661C11.4752 8.16661 11.0175 7.97622 10.6367 7.59543C10.2559 7.21465 10.0655 6.75689 10.0655 6.22217C10.0655 5.68744 10.2559 5.22969 10.6367 4.8489C11.0175 4.46812 11.4752 4.27772 12.01 4.27772C12.5447 4.27772 13.0024 4.46812 13.3832 4.8489C13.764 5.22969 13.9544 5.68744 13.9544 6.22217C13.9544 6.75689 13.764 7.21465 13.3832 7.59543C13.0024 7.97622 12.5447 8.16661 12.01 8.16661Z" fill="#3B82F6"/>
</svg>
