<svg width="25" height="28" viewBox="0 0 25 28" fill="none" xmlns="http://www.w3.org/2000/svg">
<path d="M6.17678 21.7778C5.3666 21.7778 4.67794 21.4943 4.11081 20.9271C3.54368 20.36 3.26012 19.6714 3.26012 18.8612H1.31567V8.16672C1.31567 7.632 1.50607 7.17424 1.88685 6.79346C2.26764 6.41267 2.7254 6.22228 3.26012 6.22228H16.8712V10.1112H19.7879L22.7046 14.0001V18.8612H20.7601C20.7601 19.6714 20.4766 20.36 19.9094 20.9271C19.3423 21.4943 18.6536 21.7778 17.8435 21.7778C17.0333 21.7778 16.3446 21.4943 15.7775 20.9271C15.2104 20.36 14.9268 19.6714 14.9268 18.8612H9.09345C9.09345 19.6714 8.80989 20.36 8.24276 20.9271C7.67563 21.4943 6.98697 21.7778 6.17678 21.7778ZM6.17678 19.8334C6.45225 19.8334 6.68315 19.7402 6.86949 19.5539C7.05584 19.3675 7.14901 19.1366 7.14901 18.8612C7.14901 18.5857 7.05584 18.3548 6.86949 18.1685C6.68315 17.9821 6.45225 17.8889 6.17678 17.8889C5.90132 17.8889 5.67042 17.9821 5.48408 18.1685C5.29773 18.3548 5.20456 18.5857 5.20456 18.8612C5.20456 19.1366 5.29773 19.3675 5.48408 19.5539C5.67042 19.7402 5.90132 19.8334 6.17678 19.8334ZM3.26012 16.9167H4.0379C4.31336 16.6251 4.62933 16.3901 4.98581 16.2119C5.34229 16.0336 5.73928 15.9445 6.17678 15.9445C6.61428 15.9445 7.01128 16.0336 7.36776 16.2119C7.72424 16.3901 8.04021 16.6251 8.31567 16.9167H14.9268V8.16672H3.26012V16.9167ZM17.8435 19.8334C18.1189 19.8334 18.3498 19.7402 18.5362 19.5539C18.7225 19.3675 18.8157 19.1366 18.8157 18.8612C18.8157 18.5857 18.7225 18.3548 18.5362 18.1685C18.3498 17.9821 18.1189 17.8889 17.8435 17.8889C17.568 17.8889 17.3371 17.9821 17.1507 18.1685C16.9644 18.3548 16.8712 18.5857 16.8712 18.8612C16.8712 19.1366 16.9644 19.3675 17.1507 19.5539C17.3371 19.7402 17.568 19.8334 17.8435 19.8334ZM16.8712 14.9723H21.0032L18.8157 12.0556H16.8712V14.9723Z" fill="#1F2937"/>
</svg>
