<svg width="25" height="28" viewBox="0 0 25 28" fill="none" xmlns="http://www.w3.org/2000/svg">
<path d="M1.31555 21.7778V19.0556C1.31555 18.5047 1.45733 17.9983 1.7409 17.5365C2.02446 17.0747 2.4012 16.7223 2.87111 16.4792C3.87574 15.9769 4.89657 15.6002 5.93361 15.349C6.97064 15.0979 8.02389 14.9723 9.09333 14.9723C10.1628 14.9723 11.216 15.0979 12.2531 15.349C13.2901 15.6002 14.3109 15.9769 15.3156 16.4792C15.7855 16.7223 16.1622 17.0747 16.4458 17.5365C16.7293 17.9983 16.8711 18.5047 16.8711 19.0556V21.7778H1.31555ZM18.8156 21.7778V18.8612C18.8156 18.1482 18.6171 17.4636 18.2201 16.8073C17.8231 16.1511 17.26 15.588 16.5308 15.1181C17.3572 15.2153 18.135 15.3814 18.8642 15.6164C19.5933 15.8513 20.2739 16.1389 20.9058 16.4792C21.4892 16.8033 21.9348 17.1638 22.2426 17.5608C22.5505 17.9578 22.7044 18.3913 22.7044 18.8612V21.7778H18.8156ZM9.09333 14.0001C8.02389 14.0001 7.10838 13.6193 6.3468 12.8577C5.58523 12.0961 5.20444 11.1806 5.20444 10.1112C5.20444 9.04172 5.58523 8.12621 6.3468 7.36464C7.10838 6.60306 8.02389 6.22228 9.09333 6.22228C10.1628 6.22228 11.0783 6.60306 11.8399 7.36464C12.6014 8.12621 12.9822 9.04172 12.9822 10.1112C12.9822 11.1806 12.6014 12.0961 11.8399 12.8577C11.0783 13.6193 10.1628 14.0001 9.09333 14.0001ZM18.8156 10.1112C18.8156 11.1806 18.4348 12.0961 17.6732 12.8577C16.9116 13.6193 15.9961 14.0001 14.9267 14.0001C14.7484 14.0001 14.5216 13.9798 14.2461 13.9393C13.9706 13.8988 13.7438 13.8542 13.5656 13.8056C14.0031 13.2871 14.3393 12.7119 14.5742 12.0799C14.8092 11.448 14.9267 10.7917 14.9267 10.1112C14.9267 9.43061 14.8092 8.77436 14.5742 8.14242C14.3393 7.51047 14.0031 6.93524 13.5656 6.41672C13.7924 6.3357 14.0193 6.28304 14.2461 6.25873C14.473 6.23443 14.6998 6.22228 14.9267 6.22228C15.9961 6.22228 16.9116 6.60306 17.6732 7.36464C18.4348 8.12621 18.8156 9.04172 18.8156 10.1112ZM3.26 19.8334H14.9267V19.0556C14.9267 18.8774 14.8821 18.7153 14.793 18.5695C14.7039 18.4237 14.5864 18.3102 14.4406 18.2292C13.5656 17.7917 12.6825 17.4636 11.7912 17.2448C10.9 17.0261 10.0007 16.9167 9.09333 16.9167C8.18592 16.9167 7.28662 17.0261 6.39541 17.2448C5.50421 17.4636 4.62111 17.7917 3.74611 18.2292C3.60027 18.3102 3.4828 18.4237 3.39368 18.5695C3.30456 18.7153 3.26 18.8774 3.26 19.0556V19.8334ZM9.09333 12.0556C9.62805 12.0556 10.0858 11.8652 10.4666 11.4844C10.8474 11.1036 11.0378 10.6459 11.0378 10.1112C11.0378 9.57644 10.8474 9.11869 10.4666 8.7379C10.0858 8.35711 9.62805 8.16672 9.09333 8.16672C8.55861 8.16672 8.10085 8.35711 7.72007 8.7379C7.33928 9.11869 7.14889 9.57644 7.14889 10.1112C7.14889 10.6459 7.33928 11.1036 7.72007 11.4844C8.10085 11.8652 8.55861 12.0556 9.09333 12.0556Z" fill="#475569"/>
</svg>
