<svg width="25" height="28" viewBox="0 0 25 28" fill="none" xmlns="http://www.w3.org/2000/svg">
<path d="M12.01 14.0001C10.9405 14.0001 10.025 13.6193 9.26343 12.8577C8.50185 12.0961 8.12107 11.1806 8.12107 10.1112C8.12107 9.04172 8.50185 8.12621 9.26343 7.36464C10.025 6.60306 10.9405 6.22228 12.01 6.22228C13.0794 6.22228 13.9949 6.60306 14.7565 7.36464C15.5181 8.12621 15.8988 9.04172 15.8988 10.1112C15.8988 11.1806 15.5181 12.0961 14.7565 12.8577C13.9949 13.6193 13.0794 14.0001 12.01 14.0001ZM4.23218 21.7778V19.0556C4.23218 18.5047 4.37396 17.9983 4.65752 17.5365C4.94109 17.0747 5.31783 16.7223 5.78773 16.4792C6.79236 15.9769 7.8132 15.6002 8.85023 15.349C9.88727 15.0979 10.9405 14.9723 12.01 14.9723C13.0794 14.9723 14.1326 15.0979 15.1697 15.349C16.2067 15.6002 17.2275 15.9769 18.2322 16.4792C18.7021 16.7223 19.0788 17.0747 19.3624 17.5365C19.646 17.9983 19.7877 18.5047 19.7877 19.0556V21.7778H4.23218ZM6.17662 19.8334H17.8433V19.0556C17.8433 18.8774 17.7987 18.7153 17.7096 18.5695C17.6205 18.4237 17.503 18.3102 17.3572 18.2292C16.4822 17.7917 15.5991 17.4636 14.7079 17.2448C13.8167 17.0261 12.9174 16.9167 12.01 16.9167C11.1025 16.9167 10.2032 17.0261 9.31204 17.2448C8.42084 17.4636 7.53773 17.7917 6.66273 18.2292C6.5169 18.3102 6.39942 18.4237 6.3103 18.5695C6.22118 18.7153 6.17662 18.8774 6.17662 19.0556V19.8334ZM12.01 12.0556C12.5447 12.0556 13.0024 11.8652 13.3832 11.4844C13.764 11.1036 13.9544 10.6459 13.9544 10.1112C13.9544 9.57644 13.764 9.11869 13.3832 8.7379C13.0024 8.35711 12.5447 8.16672 12.01 8.16672C11.4752 8.16672 11.0175 8.35711 10.6367 8.7379C10.2559 9.11869 10.0655 9.57644 10.0655 10.1112C10.0655 10.6459 10.2559 11.1036 10.6367 11.4844C11.0175 11.8652 11.4752 12.0556 12.01 12.0556Z" fill="#135BEC"/>
</svg>
