<svg width="25" height="28" viewBox="0 0 25 28" fill="none" xmlns="http://www.w3.org/2000/svg">
<path d="M9.09334 22.75C8.0239 22.75 7.10839 22.3692 6.34682 21.6076C5.58524 20.8461 5.20445 19.9306 5.20445 18.8611V10.9132C4.63732 10.7025 4.17147 10.3501 3.80688 9.8559C3.4423 9.36169 3.26001 8.79861 3.26001 8.16667C3.26001 7.35648 3.54357 6.66782 4.1107 6.10069C4.67783 5.53356 5.36649 5.25 6.17668 5.25C6.98686 5.25 7.67552 5.53356 8.24265 6.10069C8.80978 6.66782 9.09334 7.35648 9.09334 8.16667C9.09334 8.79861 8.91105 9.36169 8.54647 9.8559C8.18188 10.3501 7.71603 10.7025 7.1489 10.9132V18.8611C7.1489 19.3958 7.33929 19.8536 7.72008 20.2344C8.10087 20.6152 8.55862 20.8056 9.09334 20.8056C9.62807 20.8056 10.0858 20.6152 10.4666 20.2344C10.8474 19.8536 11.0378 19.3958 11.0378 18.8611V9.13889C11.0378 8.06944 11.4186 7.15393 12.1801 6.39236C12.9417 5.63079 13.8572 5.25 14.9267 5.25C15.9961 5.25 16.9116 5.63079 17.6732 6.39236C18.4348 7.15393 18.8156 8.06944 18.8156 9.13889V17.0868C19.3827 17.2975 19.8486 17.6499 20.2131 18.1441C20.5777 18.6383 20.76 19.2014 20.76 19.8333C20.76 20.6435 20.4764 21.3322 19.9093 21.8993C19.3422 22.4664 18.6535 22.75 17.8433 22.75C17.0332 22.75 16.3445 22.4664 15.7774 21.8993C15.2102 21.3322 14.9267 20.6435 14.9267 19.8333C14.9267 19.2014 15.109 18.6343 15.4736 18.1319C15.8381 17.6296 16.304 17.2812 16.8711 17.0868V9.13889C16.8711 8.60417 16.6807 8.14641 16.2999 7.76562C15.9192 7.38484 15.4614 7.19444 14.9267 7.19444C14.392 7.19444 13.9342 7.38484 13.5534 7.76562C13.1726 8.14641 12.9822 8.60417 12.9822 9.13889V18.8611C12.9822 19.9306 12.6014 20.8461 11.8399 21.6076C11.0783 22.3692 10.1628 22.75 9.09334 22.75ZM6.17668 9.13889C6.45214 9.13889 6.68304 9.04572 6.86938 8.85938C7.05573 8.67303 7.1489 8.44213 7.1489 8.16667C7.1489 7.8912 7.05573 7.6603 6.86938 7.47396C6.68304 7.28762 6.45214 7.19444 6.17668 7.19444C5.90121 7.19444 5.67031 7.28762 5.48397 7.47396C5.29763 7.6603 5.20445 7.8912 5.20445 8.16667C5.20445 8.44213 5.29763 8.67303 5.48397 8.85938C5.67031 9.04572 5.90121 9.13889 6.17668 9.13889ZM17.8433 20.8056C18.1188 20.8056 18.3497 20.7124 18.5361 20.526C18.7224 20.3397 18.8156 20.1088 18.8156 19.8333C18.8156 19.5579 18.7224 19.327 18.5361 19.1406C18.3497 18.9543 18.1188 18.8611 17.8433 18.8611C17.5679 18.8611 17.337 18.9543 17.1506 19.1406C16.9643 19.327 16.8711 19.5579 16.8711 19.8333C16.8711 20.1088 16.9643 20.3397 17.1506 20.526C17.337 20.7124 17.5679 20.8056 17.8433 20.8056Z" fill="#1F2937"/>
</svg>
