<svg width="25" height="28" viewBox="0 0 25 28" fill="none" xmlns="http://www.w3.org/2000/svg">
<path d="M20.7843 13.0764V20.8056C20.7843 21.3403 20.5939 21.798 20.2132 22.1788C19.8324 22.5596 19.3746 22.75 18.8399 22.75H5.22878C4.69406 22.75 4.2363 22.5596 3.85552 22.1788C3.47473 21.798 3.28434 21.3403 3.28434 20.8056V13.0764C2.91165 12.7361 2.62404 12.2986 2.42149 11.7639C2.21894 11.2292 2.21489 10.6458 2.40934 10.0139L3.43017 6.70833C3.5598 6.28704 3.7907 5.93866 4.12288 5.66319C4.45505 5.38773 4.83989 5.25 5.27739 5.25H18.7913C19.2288 5.25 19.6096 5.38368 19.9336 5.65104C20.2577 5.9184 20.4927 6.27083 20.6385 6.70833L21.6593 10.0139C21.8538 10.6458 21.8497 11.2211 21.6472 11.7396C21.4446 12.2581 21.157 12.7037 20.7843 13.0764ZM14.1732 12.0556C14.6107 12.0556 14.9429 11.9057 15.1698 11.6059C15.3966 11.3061 15.4857 10.9699 15.4371 10.5972L14.9024 7.19444H13.0066V10.7917C13.0066 11.1319 13.12 11.4277 13.3468 11.6788C13.5737 11.93 13.8492 12.0556 14.1732 12.0556ZM9.79823 12.0556C10.1709 12.0556 10.4747 11.93 10.7097 11.6788C10.9446 11.4277 11.0621 11.1319 11.0621 10.7917V7.19444H9.16628L8.63156 10.5972C8.56674 10.9861 8.65181 11.3264 8.88677 11.6181C9.12172 11.9097 9.42554 12.0556 9.79823 12.0556ZM5.47184 12.0556C5.7635 12.0556 6.01871 11.9502 6.23746 11.7396C6.45621 11.5289 6.58989 11.2616 6.6385 10.9375L7.17323 7.19444H5.27739L4.30517 10.4514C4.20795 10.7755 4.26061 11.1238 4.46316 11.4965C4.6657 11.8692 5.00193 12.0556 5.47184 12.0556ZM18.5968 12.0556C19.0667 12.0556 19.407 11.8692 19.6177 11.4965C19.8283 11.1238 19.8769 10.7755 19.7635 10.4514L18.7427 7.19444H16.8954L17.4302 10.9375C17.4788 11.2616 17.6125 11.5289 17.8312 11.7396C18.05 11.9502 18.3052 12.0556 18.5968 12.0556ZM5.22878 20.8056H18.8399V13.9514C18.7589 13.9838 18.7062 14 18.6819 14C18.6576 14 18.6292 14 18.5968 14C18.1593 14 17.7745 13.9271 17.4423 13.7812C17.1101 13.6354 16.782 13.4005 16.4579 13.0764C16.1663 13.3681 15.8341 13.5949 15.4614 13.7569C15.0887 13.919 14.6917 14 14.2704 14C13.8329 14 13.4238 13.919 13.043 13.7569C12.6622 13.5949 12.326 13.3681 12.0343 13.0764C11.7589 13.3681 11.4389 13.5949 11.0743 13.7569C10.7097 13.919 10.3167 14 9.89545 14C9.42554 14 9.00019 13.919 8.61941 13.7569C8.23862 13.5949 7.90239 13.3681 7.61073 13.0764C7.27045 13.4167 6.93422 13.6557 6.60205 13.7934C6.26987 13.9311 5.89313 14 5.47184 14C5.43943 14 5.40297 14 5.36246 14C5.32195 14 5.27739 13.9838 5.22878 13.9514V20.8056ZM18.8399 20.8056H5.22878C5.27739 20.8056 5.32195 20.8056 5.36246 20.8056C5.40297 20.8056 5.43943 20.8056 5.47184 20.8056C5.89313 20.8056 6.26987 20.8056 6.60205 20.8056C6.93422 20.8056 7.27045 20.8056 7.61073 20.8056C7.75656 20.8056 7.91455 20.8056 8.08468 20.8056C8.25482 20.8056 8.43711 20.8056 8.63156 20.8056C8.826 20.8056 9.02855 20.8056 9.2392 20.8056C9.44985 20.8056 9.6686 20.8056 9.89545 20.8056C10.1061 20.8056 10.3086 20.8056 10.5031 20.8056C10.6975 20.8056 10.8879 20.8056 11.0743 20.8056C11.2606 20.8056 11.4348 20.8056 11.5968 20.8056C11.7589 20.8056 11.9047 20.8056 12.0343 20.8056C12.326 20.8056 12.6622 20.8056 13.043 20.8056C13.4238 20.8056 13.8329 20.8056 14.2704 20.8056C14.4811 20.8056 14.6836 20.8056 14.8781 20.8056C15.0725 20.8056 15.2629 20.8056 15.4493 20.8056C15.6356 20.8056 15.8139 20.8056 15.984 20.8056C16.1541 20.8056 16.3121 20.8056 16.4579 20.8056C16.782 20.8056 17.1101 20.8056 17.4423 20.8056C17.7745 20.8056 18.1593 20.8056 18.5968 20.8056C18.6292 20.8056 18.6576 20.8056 18.6819 20.8056C18.7062 20.8056 18.7589 20.8056 18.8399 20.8056Z" fill="#475569"/>
</svg>
