<svg width="28" height="36" viewBox="0 0 28 36" fill="none" xmlns="http://www.w3.org/2000/svg">
<path d="M9.33333 22.6667H10.2833L16.8 16.15L15.85 15.2L9.33333 21.7167V22.6667ZM8 24V21.1667L16.8 12.3833C16.9333 12.2611 17.0806 12.1667 17.2417 12.1C17.4028 12.0333 17.5722 12 17.75 12C17.9278 12 18.1 12.0333 18.2667 12.1C18.4333 12.1667 18.5778 12.2667 18.7 12.4L19.6167 13.3333C19.75 13.4556 19.8472 13.6 19.9083 13.7667C19.9694 13.9333 20 14.1 20 14.2667C20 14.4444 19.9694 14.6139 19.9083 14.775C19.8472 14.9361 19.75 15.0833 19.6167 15.2167L10.8333 24H8ZM16.3167 15.6833L15.85 15.2L16.8 16.15L16.3167 15.6833Z" fill="#4B5563"/>
</svg>
