<svg width="28" height="36" viewBox="0 0 28 36" fill="none" xmlns="http://www.w3.org/2000/svg">
<path d="M14.0001 20.6667C14.8334 20.6667 15.5417 20.3751 16.1251 19.7917C16.7084 19.2084 17.0001 18.5001 17.0001 17.6667C17.0001 16.8334 16.7084 16.1251 16.1251 15.5417C15.5417 14.9584 14.8334 14.6667 14.0001 14.6667C13.1667 14.6667 12.4584 14.9584 11.8751 15.5417C11.2917 16.1251 11.0001 16.8334 11.0001 17.6667C11.0001 18.5001 11.2917 19.2084 11.8751 19.7917C12.4584 20.3751 13.1667 20.6667 14.0001 20.6667ZM14.0001 19.4667C13.5001 19.4667 13.0751 19.2917 12.7251 18.9417C12.3751 18.5917 12.2001 18.1667 12.2001 17.6667C12.2001 17.1667 12.3751 16.7417 12.7251 16.3917C13.0751 16.0417 13.5001 15.8667 14.0001 15.8667C14.5001 15.8667 14.9251 16.0417 15.2751 16.3917C15.6251 16.7417 15.8001 17.1667 15.8001 17.6667C15.8001 18.1667 15.6251 18.5917 15.2751 18.9417C14.9251 19.2917 14.5001 19.4667 14.0001 19.4667ZM14.0001 22.6667C12.3779 22.6667 10.9001 22.214 9.56675 21.3084C8.23341 20.4029 7.26675 19.189 6.66675 17.6667C7.26675 16.1445 8.23341 14.9306 9.56675 14.0251C10.9001 13.1195 12.3779 12.6667 14.0001 12.6667C15.6223 12.6667 17.1001 13.1195 18.4334 14.0251C19.7667 14.9306 20.7334 16.1445 21.3334 17.6667C20.7334 19.189 19.7667 20.4029 18.4334 21.3084C17.1001 22.214 15.6223 22.6667 14.0001 22.6667ZM14.0001 21.3334C15.2556 21.3334 16.4084 21.0029 17.4584 20.3417C18.5084 19.6806 19.3112 18.789 19.8667 17.6667C19.3112 16.5445 18.5084 15.6529 17.4584 14.9917C16.4084 14.3306 15.2556 14.0001 14.0001 14.0001C12.7445 14.0001 11.5917 14.3306 10.5417 14.9917C9.49175 15.6529 8.68897 16.5445 8.13341 17.6667C8.68897 18.789 9.49175 19.6806 10.5417 20.3417C11.5917 21.0029 12.7445 21.3334 14.0001 21.3334Z" fill="#4B5563"/>
</svg>
