<svg width="25" height="28" viewBox="0 0 25 28" fill="none" xmlns="http://www.w3.org/2000/svg">
<path d="M6.17668 23.7222C5.36649 23.7222 4.67783 23.4386 4.1107 22.8715C3.54357 22.3043 3.26001 21.6157 3.26001 20.8055V17.8888H6.17668V4.27772L7.63501 5.73606L9.09334 4.27772L10.5517 5.73606L12.01 4.27772L13.4683 5.73606L14.9267 4.27772L16.385 5.73606L17.8433 4.27772L19.3017 5.73606L20.76 4.27772V20.8055C20.76 21.6157 20.4764 22.3043 19.9093 22.8715C19.3422 23.4386 18.6535 23.7222 17.8433 23.7222H6.17668ZM17.8433 21.7777C18.1188 21.7777 18.3497 21.6846 18.5361 21.4982C18.7224 21.3119 18.8156 21.081 18.8156 20.8055V7.19439H8.12112V17.8888H16.8711V20.8055C16.8711 21.081 16.9643 21.3119 17.1506 21.4982C17.337 21.6846 17.5679 21.7777 17.8433 21.7777ZM9.09334 11.0833V9.13883H14.9267V11.0833H9.09334ZM9.09334 13.9999V12.0555H14.9267V13.9999H9.09334ZM16.8711 11.0833C16.5957 11.0833 16.3648 10.9901 16.1784 10.8038C15.9921 10.6174 15.8989 10.3865 15.8989 10.1111C15.8989 9.83559 15.9921 9.60469 16.1784 9.41835C16.3648 9.23201 16.5957 9.13883 16.8711 9.13883C17.1466 9.13883 17.3775 9.23201 17.5638 9.41835C17.7502 9.60469 17.8433 9.83559 17.8433 10.1111C17.8433 10.3865 17.7502 10.6174 17.5638 10.8038C17.3775 10.9901 17.1466 11.0833 16.8711 11.0833ZM16.8711 13.9999C16.5957 13.9999 16.3648 13.9068 16.1784 13.7204C15.9921 13.5341 15.8989 13.3032 15.8989 13.0277C15.8989 12.7523 15.9921 12.5214 16.1784 12.335C16.3648 12.1487 16.5957 12.0555 16.8711 12.0555C17.1466 12.0555 17.3775 12.1487 17.5638 12.335C17.7502 12.5214 17.8433 12.7523 17.8433 13.0277C17.8433 13.3032 17.7502 13.5341 17.5638 13.7204C17.3775 13.9068 17.1466 13.9999 16.8711 13.9999ZM6.17668 21.7777H14.9267V19.8333H5.20445V20.8055C5.20445 21.081 5.29763 21.3119 5.48397 21.4982C5.67031 21.6846 5.90121 21.7777 6.17668 21.7777ZM5.20445 21.7777C5.20445 21.7777 5.20445 21.6846 5.20445 21.4982C5.20445 21.3119 5.20445 21.081 5.20445 20.8055V19.8333V21.7777Z" fill="#475569"/>
</svg>
