<svg width="215" height="32" viewBox="0 0 215 32" fill="none" xmlns="http://www.w3.org/2000/svg">
<g clip-path="url(#clip0_2_352)">
<path d="M31.9764 15.9882C31.9764 7.15816 24.8182 0 15.9882 0C7.15816 0 0 7.15816 0 15.9882C0 24.8182 7.15816 31.9764 15.9882 31.9764C24.8182 31.9764 31.9764 24.8182 31.9764 15.9882Z" fill="#FFFF00"/>
<path d="M3.75197 14.7932C3.27974 12.1151 3.04363 10.776 3.38446 9.66126C3.68426 8.68064 4.28681 7.82012 5.10575 7.20301C6.03675 6.50144 7.37581 6.26533 10.054 5.79311L18.1441 4.3666C20.8222 3.89437 22.1613 3.65826 23.2761 3.99909C24.2567 4.29889 25.1172 4.90144 25.7343 5.72038C26.4359 6.65138 26.672 7.99044 27.1442 10.6685L28.2538 16.961C28.726 19.6392 28.9621 20.9782 28.6213 22.093C28.3215 23.0736 27.7189 23.9342 26.9 24.5513C25.969 25.2528 24.6299 25.4889 21.9518 25.9612L13.8617 27.3877C11.1836 27.8599 9.84446 28.096 8.72966 27.7552C7.74905 27.4554 6.88852 26.8528 6.27141 26.0339C5.56985 25.1029 5.33373 23.7638 4.86151 21.0857L3.75197 14.7932Z" fill="#7000FF"/>
<path d="M20.5487 11.084C21.0311 11.1902 21.4979 11.2809 21.9559 11.3981C22.4426 11.522 22.9249 11.6725 23.4072 11.8074C23.4758 11.8273 23.5024 11.8539 23.5024 11.9313C23.5001 13.438 23.5156 14.9469 23.4957 16.4536C23.4736 18.0731 22.9625 19.5377 21.978 20.8253C20.8806 22.2612 19.4447 23.186 17.6881 23.6064C16.9956 23.7723 16.2898 23.8276 15.5796 23.7856C13.8915 23.686 12.3959 23.0909 11.1171 21.9869C9.79849 20.8519 8.96661 19.4227 8.63253 17.7102C8.5374 17.2235 8.49979 16.7301 8.49979 16.2345C8.49757 14.8075 8.49979 13.3827 8.49536 11.9557C8.49536 11.8605 8.52634 11.8273 8.61262 11.8008C9.533 11.5065 10.4711 11.2742 11.4202 11.1017C11.4291 11.0994 11.4379 11.1017 11.46 11.0994C11.46 11.1371 11.46 11.1747 11.46 11.2101C11.46 12.9999 11.4534 14.792 11.4645 16.5819C11.4711 17.4846 11.5928 18.3762 11.9003 19.2324C12.1437 19.9116 12.5043 20.5178 13.0419 21.009C13.5464 21.467 14.1371 21.7568 14.7986 21.8984C15.7345 22.0997 16.6681 22.0842 17.5863 21.7944C18.6704 21.4537 19.4226 20.7324 19.9049 19.7169C20.1638 19.1749 20.3187 18.5996 20.416 18.0089C20.5244 17.3518 20.551 16.6881 20.551 16.0243C20.551 14.427 20.551 12.8274 20.551 11.23C20.5487 11.1879 20.5487 11.1481 20.5487 11.084Z" fill="white"/>
<path d="M17.3163 14.4026C16.4335 14.4026 15.5596 14.4026 14.6813 14.4026C14.6813 12.3451 14.6813 10.2897 14.6813 8.23659C14.9556 8.1503 16.7942 8.14366 17.3163 8.22995C17.3163 10.2875 17.3163 12.3451 17.3163 14.4026Z" fill="white"/>
<path d="M20.5487 11.084C21.0311 11.1902 21.4979 11.2809 21.9559 11.3981C22.4426 11.522 22.9249 11.6725 23.4072 11.8074C23.4758 11.8273 23.5024 11.8539 23.5024 11.9313C23.5001 13.438 23.5156 14.9469 23.4957 16.4536C23.4736 18.0731 22.9625 19.5377 21.978 20.8253C20.8806 22.2612 19.4447 23.186 17.6881 23.6064C16.9956 23.7723 16.2898 23.8276 15.5796 23.7856C13.8915 23.686 12.3959 23.0909 11.1171 21.9869C9.79849 20.8519 8.96661 19.4227 8.63253 17.7102C8.5374 17.2235 8.49979 16.7301 8.49979 16.2345C8.49757 14.8075 8.49979 13.3827 8.49536 11.9557C8.49536 11.8605 8.52634 11.8273 8.61262 11.8008C9.533 11.5065 10.4711 11.2742 11.4202 11.1017C11.4291 11.0994 11.4379 11.1017 11.46 11.0994C11.46 11.1371 11.46 11.1747 11.46 11.2101C11.46 12.9999 11.4534 14.792 11.4645 16.5819C11.4711 17.4846 11.5928 18.3762 11.9003 19.2324C12.1437 19.9116 12.5043 20.5178 13.0419 21.009C13.5464 21.467 14.1371 21.7568 14.7986 21.8984C15.7345 22.0997 16.6681 22.0842 17.5863 21.7944C18.6704 21.4537 19.4226 20.7324 19.9049 19.7169C20.1638 19.1749 20.3187 18.5996 20.416 18.0089C20.5244 17.3518 20.551 16.6881 20.551 16.0243C20.551 14.427 20.551 12.8274 20.551 11.23C20.5487 11.1879 20.5487 11.1481 20.5487 11.084Z" fill="white"/>
<path d="M17.3163 14.4026C16.4335 14.4026 15.5596 14.4026 14.6813 14.4026C14.6813 12.3451 14.6813 10.2897 14.6813 8.23659C14.9556 8.1503 16.7942 8.14366 17.3163 8.22995C17.3163 10.2875 17.3163 12.3451 17.3163 14.4026Z" fill="white"/>
<path d="M20.5487 11.084C21.0311 11.1902 21.4979 11.2809 21.9559 11.3981C22.4426 11.522 22.9249 11.6725 23.4072 11.8074C23.4758 11.8273 23.5024 11.8539 23.5024 11.9313C23.5001 13.438 23.5156 14.9469 23.4957 16.4536C23.4736 18.0731 22.9625 19.5377 21.978 20.8253C20.8806 22.2612 19.4447 23.186 17.6881 23.6064C16.9956 23.7723 16.2898 23.8276 15.5796 23.7856C13.8915 23.686 12.3959 23.0909 11.1171 21.9869C9.79849 20.8519 8.96661 19.4227 8.63253 17.7102C8.5374 17.2235 8.49979 16.7301 8.49979 16.2345C8.49757 14.8075 8.49979 13.3827 8.49536 11.9557C8.49536 11.8605 8.52634 11.8273 8.61262 11.8008C9.533 11.5065 10.4711 11.2742 11.4202 11.1017C11.4291 11.0994 11.4379 11.1017 11.46 11.0994C11.46 11.1371 11.46 11.1747 11.46 11.2101C11.46 12.9999 11.4534 14.792 11.4645 16.5819C11.4711 17.4846 11.5928 18.3762 11.9003 19.2324C12.1437 19.9116 12.5043 20.5178 13.0419 21.009C13.5464 21.467 14.1371 21.7568 14.7986 21.8984C15.7345 22.0997 16.6681 22.0842 17.5863 21.7944C18.6704 21.4537 19.4226 20.7324 19.9049 19.7169C20.1638 19.1749 20.3187 18.5996 20.416 18.0089C20.5244 17.3518 20.551 16.6881 20.551 16.0243C20.551 14.427 20.551 12.8274 20.551 11.23C20.5487 11.1879 20.5487 11.1481 20.5487 11.084Z" fill="white"/>
<path d="M17.3163 14.4026C16.4335 14.4026 15.5596 14.4026 14.6813 14.4026C14.6813 12.3451 14.6813 10.2897 14.6813 8.23659C14.9556 8.1503 16.7942 8.14366 17.3163 8.22995C17.3163 10.2875 17.3163 12.3451 17.3163 14.4026Z" fill="white"/>
<path d="M20.5487 11.084C21.0311 11.1902 21.4979 11.2809 21.9559 11.3981C22.4426 11.522 22.9249 11.6725 23.4072 11.8074C23.4758 11.8273 23.5024 11.8539 23.5024 11.9313C23.5001 13.438 23.5156 14.9469 23.4957 16.4536C23.4736 18.0731 22.9625 19.5377 21.978 20.8253C20.8806 22.2612 19.4447 23.186 17.6881 23.6064C16.9956 23.7723 16.2898 23.8276 15.5796 23.7856C13.8915 23.686 12.3959 23.0909 11.1171 21.9869C9.79849 20.8519 8.96661 19.4227 8.63253 17.7102C8.5374 17.2235 8.49979 16.7301 8.49979 16.2345C8.49757 14.8075 8.49979 13.3827 8.49536 11.9557C8.49536 11.8605 8.52634 11.8273 8.61262 11.8008C9.533 11.5065 10.4711 11.2742 11.4202 11.1017C11.4291 11.0994 11.4379 11.1017 11.46 11.0994C11.46 11.1371 11.46 11.1747 11.46 11.2101C11.46 12.9999 11.4534 14.792 11.4645 16.5819C11.4711 17.4846 11.5928 18.3762 11.9003 19.2324C12.1437 19.9116 12.5043 20.5178 13.0419 21.009C13.5464 21.467 14.1371 21.7568 14.7986 21.8984C15.7345 22.0997 16.6681 22.0842 17.5863 21.7944C18.6704 21.4537 19.4226 20.7324 19.9049 19.7169C20.1638 19.1749 20.3187 18.5996 20.416 18.0089C20.5244 17.3518 20.551 16.6881 20.551 16.0243C20.551 14.427 20.551 12.8274 20.551 11.23C20.5487 11.1879 20.5487 11.1481 20.5487 11.084Z" fill="white"/>
<path d="M17.3163 14.4026C16.4335 14.4026 15.5596 14.4026 14.6813 14.4026C14.6813 12.3451 14.6813 10.2897 14.6813 8.23659C14.9556 8.1503 16.7942 8.14366 17.3163 8.22995C17.3163 10.2875 17.3163 12.3451 17.3163 14.4026Z" fill="white"/>
<path d="M136.192 9.43604C133.804 9.43604 132 10.4098 131.101 11.8773C130.195 10.4098 128.22 9.43604 126.161 9.43604C122.114 9.43604 120.049 11.9939 120.049 15.1689V22.7807H123.829V15.7038C123.829 14.1952 124.631 12.8511 126.456 12.8511C128.288 12.8511 129.235 14.1334 129.235 15.6489V22.7807H133.029V15.6489C133.029 14.1266 133.921 12.8511 135.739 12.8511C137.571 12.8511 138.421 14.1952 138.421 15.7038V22.7807H142.202V15.1689C142.195 11.9939 140.246 9.43604 136.192 9.43604Z" fill="#7000FF"/>
<path d="M159.051 18.1862V9.68976H155.312L155.34 11.7539C154.523 10.5401 153.096 9.43604 150.558 9.43604C146.194 9.43604 143.951 12.8237 143.951 16.225C143.869 19.6674 146.407 23.0893 150.373 23.0893C152.472 23.0893 154.393 22.1567 155.312 20.5178C155.683 21.6012 156.623 22.7876 158.571 22.7876H160.732V19.6126H160.128C159.374 19.6126 159.051 19.3314 159.051 18.1862ZM151.347 19.8114C149.199 19.8114 147.594 18.3302 147.594 16.2524C147.594 14.202 149.199 12.7482 151.347 12.7482C153.563 12.7482 155.168 14.202 155.168 16.2524C155.168 18.3302 153.563 19.8114 151.347 19.8114Z" fill="#7000FF"/>
<path d="M163.14 14.1538V22.7805H166.92V16.9928C166.92 14.7504 168.546 13.3103 170.618 13.3103H173.088V9.41528H171.236C168.951 9.41528 167.284 11.3628 166.92 12.4943V12.0965V9.68273H163.14V14.1538Z" fill="#7000FF"/>
<path d="M175.325 22.7807H179.105V16.3689L184.978 22.7807H189.437L183.352 16.0535L188.971 9.68973H184.525L179.105 15.8272V5.63696H175.325V22.7807Z" fill="#7000FF"/>
<path d="M193.862 17.2605C193.862 18.7005 194.61 20.1543 197.025 20.1543C199.241 20.1543 199.563 18.824 199.563 18.824H203.714C203.714 18.824 203.33 23.0893 197.025 23.0893C192.634 23.0893 189.883 20.6343 189.883 16.2524C189.883 11.8636 192.634 9.43604 196.984 9.43604C201.272 9.43604 204.037 11.8636 204.037 16.2524C204.037 16.7324 203.954 17.2673 203.954 17.2673H193.862V17.2605ZM193.91 14.9563H199.996C199.996 13.8866 199.378 12.3711 196.977 12.3711C194.61 12.3711 193.91 13.8934 193.91 14.9563Z" fill="#7000FF"/>
<path d="M212.661 19.4959C211.364 19.4959 210.897 18.9198 210.897 17.0957V12.4807H214.993V9.44278H210.897V6.83008H208.853L205.21 10.3137V12.4875H207.117V17.5963C207.117 21.2651 208.908 22.808 212.661 22.808H215V19.5027H212.661V19.4959Z" fill="#7000FF"/>
<path d="M83.6802 16.4853C83.6802 18.5563 82.507 19.5163 80.7644 19.5163C79.0218 19.5163 77.8898 18.5769 77.8898 16.4853V9.6416H74.1301V16.6156C74.1301 21.1621 77.9309 22.9382 80.7918 22.9382C83.6527 22.9382 87.4604 21.1553 87.4604 16.6156V9.6416H83.7007L83.6802 16.4853Z" fill="#7000FF"/>
<path d="M70.9468 12.8166V9.6416H58.728V12.8166H65.966L58.4398 19.5232V22.6982H71.4133V19.5232H63.4344L70.9468 12.8166Z" fill="#7000FF"/>
<path d="M106.286 9.39478C103.905 9.39478 102.108 10.3616 101.216 11.836C100.31 10.3616 98.3414 9.39478 96.2969 9.39478C92.2766 9.39478 90.1841 11.9526 90.1841 15.1207V22.6982H93.9437V15.6488C93.9437 14.1333 94.7395 12.8029 96.5645 12.8029C96.935 12.7823 97.3054 12.8372 97.6553 12.9675C98.0052 13.0978 98.3208 13.3035 98.5815 13.5709C98.8422 13.8315 99.048 14.1538 99.1784 14.5036C99.3088 14.8533 99.3636 15.2236 99.3431 15.5939V22.6982H103.103V15.5939C103.103 14.0784 103.995 12.8029 105.799 12.8029C107.603 12.8029 108.475 14.1333 108.475 15.6488V22.6982H112.234V15.1276C112.234 11.9663 110.293 9.40162 106.252 9.40162L106.286 9.39478Z" fill="#7000FF"/>
<path d="M52.1966 16.4853C52.1966 18.5563 51.0235 19.5163 49.2946 19.5163C47.5657 19.5163 46.4062 18.5769 46.4062 16.4853V9.6416H42.6466V16.6156C42.6466 21.1621 46.4337 22.9382 49.3083 22.9382C52.1829 22.9382 55.9631 21.1553 55.9631 16.6156V9.6416H52.2035L52.1966 16.4853Z" fill="#7000FF"/>
</g>
<defs>
<clipPath id="clip0_2_352">
<rect width="215" height="32" fill="white"/>
</clipPath>
</defs>
</svg>
