<svg width="25" height="28" viewBox="0 0 25 28" fill="none" xmlns="http://www.w3.org/2000/svg">
<path d="M5.20439 23.7222C4.66966 23.7222 4.21191 23.5318 3.83112 23.151C3.45034 22.7702 3.25994 22.3124 3.25994 21.7777V10.8159C2.96828 10.6377 2.73332 10.4068 2.55508 10.1232C2.37684 9.83964 2.28772 9.51152 2.28772 9.13883V6.22217C2.28772 5.68744 2.47811 5.22969 2.8589 4.8489C3.23969 4.46812 3.69744 4.27772 4.23216 4.27772H19.7877C20.3224 4.27772 20.7802 4.46812 21.161 4.8489C21.5418 5.22969 21.7322 5.68744 21.7322 6.22217V9.13883C21.7322 9.51152 21.643 9.83964 21.4648 10.1232C21.2866 10.4068 21.0516 10.6377 20.7599 10.8159V21.7777C20.7599 22.3124 20.5695 22.7702 20.1888 23.151C19.808 23.5318 19.3502 23.7222 18.8155 23.7222H5.20439ZM5.20439 11.0833V21.7777H18.8155V11.0833H5.20439ZM4.23216 9.13883H19.7877V6.22217H4.23216V9.13883ZM9.09328 15.9444H14.9266V13.9999H9.09328V15.9444Z" fill="#475569"/>
</svg>
