<svg width="25" height="28" viewBox="0 0 25 28" fill="none" xmlns="http://www.w3.org/2000/svg">
<path d="M9.33636 23.7222L8.94747 20.6111C8.73682 20.53 8.53833 20.4328 8.35198 20.3194C8.16564 20.206 7.98335 20.0844 7.80511 19.9548L4.91275 21.1701L2.23914 16.552L4.74261 14.6562C4.7264 14.5428 4.7183 14.4334 4.7183 14.3281C4.7183 14.2227 4.7183 14.1134 4.7183 13.9999C4.7183 13.8865 4.7183 13.7771 4.7183 13.6718C4.7183 13.5665 4.7264 13.4571 4.74261 13.3437L2.23914 11.4479L4.91275 6.82981L7.80511 8.04508C7.98335 7.91545 8.16969 7.79393 8.36414 7.6805C8.55858 7.56708 8.75303 7.46985 8.94747 7.38883L9.33636 4.27772H14.6836L15.0725 7.38883C15.2831 7.46985 15.4816 7.56708 15.668 7.6805C15.8543 7.79393 16.0366 7.91545 16.2148 8.04508L19.1072 6.82981L21.7808 11.4479L19.2773 13.3437C19.2935 13.4571 19.3016 13.5665 19.3016 13.6718C19.3016 13.7771 19.3016 13.8865 19.3016 13.9999C19.3016 14.1134 19.3016 14.2227 19.3016 14.3281C19.3016 14.4334 19.2854 14.5428 19.253 14.6562L21.7565 16.552L19.0829 21.1701L16.2148 19.9548C16.0366 20.0844 15.8502 20.206 15.6558 20.3194C15.4614 20.4328 15.2669 20.53 15.0725 20.6111L14.6836 23.7222H9.33636ZM11.0377 21.7777H12.9579L13.2982 19.2013C13.8005 19.0717 14.2663 18.8813 14.6957 18.6302C15.1251 18.379 15.5181 18.0752 15.8746 17.7187L18.2808 18.7152L19.2287 17.0624L17.1384 15.4826C17.2195 15.2557 17.2762 15.0167 17.3086 14.7656C17.341 14.5144 17.3572 14.2592 17.3572 13.9999C17.3572 13.7407 17.341 13.4855 17.3086 13.2343C17.2762 12.9832 17.2195 12.7442 17.1384 12.5173L19.2287 10.9374L18.2808 9.28467L15.8746 10.3055C15.5181 9.93282 15.1251 9.62089 14.6957 9.36974C14.2663 9.11858 13.8005 8.92819 13.2982 8.79856L12.9822 6.22217H11.0621L10.7218 8.79856C10.2195 8.92819 9.7536 9.11858 9.32421 9.36974C8.89481 9.62089 8.50187 9.92471 8.14539 10.2812L5.73914 9.28467L4.79122 10.9374L6.8815 12.493C6.80048 12.7361 6.74377 12.9791 6.71136 13.2222C6.67895 13.4652 6.66275 13.7245 6.66275 13.9999C6.66275 14.2592 6.67895 14.5104 6.71136 14.7534C6.74377 14.9965 6.80048 15.2395 6.8815 15.4826L4.79122 17.0624L5.73914 18.7152L8.14539 17.6944C8.50187 18.0671 8.89481 18.379 9.32421 18.6302C9.7536 18.8813 10.2195 19.0717 10.7218 19.2013L11.0377 21.7777ZM12.0586 17.4027C12.9984 17.4027 13.8005 17.0705 14.4648 16.4062C15.1292 15.7418 15.4614 14.9398 15.4614 13.9999C15.4614 13.0601 15.1292 12.258 14.4648 11.5937C13.8005 10.9293 12.9984 10.5972 12.0586 10.5972C11.1026 10.5972 10.2964 10.9293 9.64018 11.5937C8.98393 12.258 8.6558 13.0601 8.6558 13.9999C8.6558 14.9398 8.98393 15.7418 9.64018 16.4062C10.2964 17.0705 11.1026 17.4027 12.0586 17.4027Z" fill="#475569"/>
</svg>
