<svg width="48" height="48" viewBox="0 0 48 48" fill="none" xmlns="http://www.w3.org/2000/svg">
<rect width="48" height="48" rx="8" fill="#FEF9C3"/>
<path d="M30.25 36.5C28.5208 36.5 27.0469 35.8906 25.8281 34.6719C24.6094 33.4531 24 31.9792 24 30.25C24 28.5208 24.6094 27.0469 25.8281 25.8281C27.0469 24.6094 28.5208 24 30.25 24C31.9792 24 33.4531 24.6094 34.6719 25.8281C35.8906 27.0469 36.5 28.5208 36.5 30.25C36.5 31.9792 35.8906 33.4531 34.6719 34.6719C33.4531 35.8906 31.9792 36.5 30.25 36.5ZM32.3438 33.2188L33.2188 32.3438L30.875 30V26.5H29.625V30.5L32.3438 33.2188ZM15.25 35.25C14.5625 35.25 13.974 35.0052 13.4844 34.5156C12.9948 34.026 12.75 33.4375 12.75 32.75V15.25C12.75 14.5625 12.9948 13.974 13.4844 13.4844C13.974 12.9948 14.5625 12.75 15.25 12.75H20.4688C20.6979 12.0208 21.1458 11.4219 21.8125 10.9531C22.4792 10.4844 23.2083 10.25 24 10.25C24.8333 10.25 25.5781 10.4844 26.2344 10.9531C26.8906 11.4219 27.3333 12.0208 27.5625 12.75H32.75C33.4375 12.75 34.026 12.9948 34.5156 13.4844C35.0052 13.974 35.25 14.5625 35.25 15.25V23.0625C34.875 22.7917 34.4792 22.5625 34.0625 22.375C33.6458 22.1875 33.2083 22.0208 32.75 21.875V15.25H30.25V19H17.75V15.25H15.25V32.75H21.875C22.0208 33.2083 22.1875 33.6458 22.375 34.0625C22.5625 34.4792 22.7917 34.875 23.0625 35.25H15.25ZM24 15.25C24.3542 15.25 24.651 15.1302 24.8906 14.8906C25.1302 14.651 25.25 14.3542 25.25 14C25.25 13.6458 25.1302 13.349 24.8906 13.1094C24.651 12.8698 24.3542 12.75 24 12.75C23.6458 12.75 23.349 12.8698 23.1094 13.1094C22.8698 13.349 22.75 13.6458 22.75 14C22.75 14.3542 22.8698 14.651 23.1094 14.8906C23.349 15.1302 23.6458 15.25 24 15.25Z" fill="#CA8A04"/>
</svg>
