<svg width="48" height="48" viewBox="0 0 48 48" fill="none" xmlns="http://www.w3.org/2000/svg">
<rect width="48" height="48" rx="8" fill="#DCFCE7"/>
<path d="M24 36.5C22.2708 36.5 20.6458 36.1719 19.125 35.5156C17.6042 34.8594 16.2812 33.9688 15.1562 32.8438C14.0312 31.7188 13.1406 30.3958 12.4844 28.875C11.8281 27.3542 11.5 25.7292 11.5 24C11.5 22.2708 11.8281 20.6458 12.4844 19.125C13.1406 17.6042 14.0312 16.2812 15.1562 15.1562C16.2812 14.0312 17.6042 13.1406 19.125 12.4844C20.6458 11.8281 22.2708 11.5 24 11.5C25.3542 11.5 26.6354 11.6979 27.8438 12.0938C29.0521 12.4896 30.1667 13.0417 31.1875 13.75L29.375 15.5938C28.5833 15.0938 27.7396 14.7031 26.8438 14.4219C25.9479 14.1406 25 14 24 14C21.2292 14 18.8698 14.974 16.9219 16.9219C14.974 18.8698 14 21.2292 14 24C14 26.7708 14.974 29.1302 16.9219 31.0781C18.8698 33.026 21.2292 34 24 34C26.7708 34 29.1302 33.026 31.0781 31.0781C33.026 29.1302 34 26.7708 34 24C34 23.625 33.9792 23.25 33.9375 22.875C33.8958 22.5 33.8333 22.1354 33.75 21.7812L35.7812 19.75C36.0104 20.4167 36.1875 21.1042 36.3125 21.8125C36.4375 22.5208 36.5 23.25 36.5 24C36.5 25.7292 36.1719 27.3542 35.5156 28.875C34.8594 30.3958 33.9688 31.7188 32.8438 32.8438C31.7188 33.9688 30.3958 34.8594 28.875 35.5156C27.3542 36.1719 25.7292 36.5 24 36.5ZM22.25 29.75L16.9375 24.4375L18.6875 22.6875L22.25 26.25L34.75 13.7188L36.5 15.4688L22.25 29.75Z" fill="#16A34A"/>
</svg>
