<svg width="48" height="48" viewBox="0 0 48 48" fill="none" xmlns="http://www.w3.org/2000/svg">
<rect width="48" height="48" rx="8" fill="#DBEAFE"/>
<path d="M16.5 34C15.4583 34 14.5729 33.6354 13.8438 32.9062C13.1146 32.1771 12.75 31.2917 12.75 30.25H10.25V16.5C10.25 15.8125 10.4948 15.224 10.9844 14.7344C11.474 14.2448 12.0625 14 12.75 14H30.25V19H34L37.75 24V30.25H35.25C35.25 31.2917 34.8854 32.1771 34.1562 32.9062C33.4271 33.6354 32.5417 34 31.5 34C30.4583 34 29.5729 33.6354 28.8438 32.9062C28.1146 32.1771 27.75 31.2917 27.75 30.25H20.25C20.25 31.2917 19.8854 32.1771 19.1562 32.9062C18.4271 33.6354 17.5417 34 16.5 34ZM16.5 31.5C16.8542 31.5 17.151 31.3802 17.3906 31.1406C17.6302 30.901 17.75 30.6042 17.75 30.25C17.75 29.8958 17.6302 29.599 17.3906 29.3594C17.151 29.1198 16.8542 29 16.5 29C16.1458 29 15.849 29.1198 15.6094 29.3594C15.3698 29.599 15.25 29.8958 15.25 30.25C15.25 30.6042 15.3698 30.901 15.6094 31.1406C15.849 31.3802 16.1458 31.5 16.5 31.5ZM12.75 27.75H13.75C14.1042 27.375 14.5104 27.0729 14.9688 26.8438C15.4271 26.6146 15.9375 26.5 16.5 26.5C17.0625 26.5 17.5729 26.6146 18.0312 26.8438C18.4896 27.0729 18.8958 27.375 19.25 27.75H27.75V16.5H12.75V27.75ZM31.5 31.5C31.8542 31.5 32.151 31.3802 32.3906 31.1406C32.6302 30.901 32.75 30.6042 32.75 30.25C32.75 29.8958 32.6302 29.599 32.3906 29.3594C32.151 29.1198 31.8542 29 31.5 29C31.1458 29 30.849 29.1198 30.6094 29.3594C30.3698 29.599 30.25 29.8958 30.25 30.25C30.25 30.6042 30.3698 30.901 30.6094 31.1406C30.849 31.3802 31.1458 31.5 31.5 31.5ZM30.25 25.25H35.5625L32.75 21.5H30.25V25.25Z" fill="#2563EB"/>
</svg>
